<svg width="24" height="24" fill="none" xmlns="http://www.w3.org/2000/svg"><path d="M8.382 21.703c.828 0 1.499-.664 1.499-1.483 0-.819-.671-1.483-1.5-1.483a1.49 1.49 0 0 0-1.498 1.483c0 .82.67 1.483 1.499 1.483Zm9.108 0a1.49 1.49 0 0 0 1.498-1.483 1.49 1.49 0 0 0-1.499-1.483c-.828 0-1.499.664-1.499 1.483 0 .82.671 1.483 1.5 1.483Zm4.05-17.564a.665.665 0 0 0-.513-.244h-10.96a.66.66 0 1 0 0 1.318h10.087l-1.779 6.933H8.382L5.337 3.585a.658.658 0 0 0-.44-.429l-2.732-.83a.676.676 0 0 0-.51.048.656.656 0 0 0-.278.895.668.668 0 0 0 .395.322l2.392.726 3.058 8.58-1.092.883-.087.086A1.743 1.743 0 0 0 5.99 16.1a1.83 1.83 0 0 0 1.506.659h11.12a.67.67 0 0 0 .47-.193.656.656 0 0 0 0-.933.67.67 0 0 0-.47-.193H7.388a.45.45 0 0 1-.374-.225.438.438 0 0 1 0-.434l1.606-1.318h10.287a.671.671 0 0 0 .426-.14.658.658 0 0 0 .24-.374l2.113-8.251a.652.652 0 0 0-.147-.56Z" fill="#BFCBD6"/><path fill-rule="evenodd" clip-rule="evenodd" d="M21.027 3.895a.672.672 0 0 1 .513.244.657.657 0 0 1 .147.56l-2.112 8.25a.658.658 0 0 1-.24.376.671.671 0 0 1-.427.139H8.621l-1.605 1.318a.438.438 0 0 0 .156.595.45.45 0 0 0 .217.064h11.226a.67.67 0 0 1 .471.193.655.655 0 0 1 0 .933.67.67 0 0 1-.47.193H7.495a1.849 1.849 0 0 1-1.506-.66 1.741 1.741 0 0 1 .053-2.234l.087-.086 1.092-.883-3.058-8.58-2.392-.726a.668.668 0 0 1-.394-.322.656.656 0 0 1 .278-.895.675.675 0 0 1 .51-.048l2.731.83a.668.668 0 0 1 .44.429l3.045 8.56h9.993l1.78-6.932H10.065a.66.66 0 1 1 0-1.318h10.961ZM19.78 5.51h-9.717a.956.956 0 1 1 0-1.912H21.03a.975.975 0 0 1 .951 1.16v.006l-2.113 8.25M19.78 5.51l-1.645 6.339H8.601L5.623 3.495v-.001a.954.954 0 0 0-.638-.621l-2.731-.83a.979.979 0 0 0-.739.069.95.95 0 0 0-.402 1.296.97.97 0 0 0 .571.467l2.242.68 2.95 8.24-.948.765-.104.104-.007.008a2.038 2.038 0 0 0-.063 2.612l.004.005a2.13 2.13 0 0 0 1.745.767h11.112c.257 0 .502-.1.683-.28a.95.95 0 0 0 0-1.351.972.972 0 0 0-.683-.28H7.395a.148.148 0 0 1-.119-.074.144.144 0 0 1-.014-.105L8.73 13.76h10.175a.973.973 0 0 0 .614-.201.955.955 0 0 0 .348-.544M10.18 20.22A1.79 1.79 0 0 1 8.383 22a1.79 1.79 0 0 1-1.8-1.78c0-.983.806-1.78 1.8-1.78a1.79 1.79 0 0 1 1.799 1.78Zm9.108 0A1.79 1.79 0 0 1 17.49 22a1.79 1.79 0 0 1-1.799-1.78c0-.983.806-1.78 1.8-1.78a1.79 1.79 0 0 1 1.798 1.78ZM8.382 21.703c.828 0 1.499-.664 1.499-1.483 0-.819-.671-1.483-1.5-1.483a1.49 1.49 0 0 0-1.498 1.483c0 .82.67 1.483 1.499 1.483Zm9.107 0c.828 0 1.5-.664 1.5-1.483 0-.819-.672-1.483-1.5-1.483s-1.499.664-1.499 1.483c0 .82.671 1.483 1.5 1.483Z" fill="#BFCBD6"/></svg>