<svg width="32" height="32" fill="none" xmlns="http://www.w3.org/2000/svg"><path fill-rule="evenodd" clip-rule="evenodd" d="m7.476 24.63 7.197-6.822v-3.374h1.125v2.999h7.196l-.3-3.224c-.075-1.274.27-2.219 3.15-2.699l.224 1.125c-.625.025-1.904.36-2.024.9-.12.54.7 7.571 1.124 11.02l-1.124.45-.825-5.998-6.297 5.847-.45-1.124 5.473-5.173h-6.147v7.573H6.427l1.05-1.5Zm7.197-5.173v5.697H8.451l6.222-5.697Z" fill="#4878A6" stroke="#0E1821" stroke-width=".48" stroke-linecap="round" stroke-linejoin="round"/><circle cx="7.101" cy="25.904" r="5.382" stroke="#0E1821" stroke-width=".48"/><path d="M12.424 25.904a5.323 5.323 0 1 1-10.645 0 5.323 5.323 0 0 1 10.645 0Zm-9.215 0a3.892 3.892 0 1 0 7.784 0 3.892 3.892 0 0 0-7.784 0Z" fill="#0E1821"/><circle cx="7.101" cy="25.904" r="5.382" stroke="#0E1821" stroke-width=".48"/><circle cx="7.101" cy="25.904" r="3.733" stroke="#0E1821" stroke-width=".48"/><circle cx="7.101" cy="25.904" r="1.334" fill="#F15152" stroke="#0E1821" stroke-width=".48"/><path d="M30.266 25.904a5.323 5.323 0 1 1-10.645 0 5.323 5.323 0 0 1 10.645 0Zm-9.214 0a3.892 3.892 0 1 0 7.784 0 3.892 3.892 0 0 0-7.784 0Z" fill="#0E1821"/><circle cx="24.944" cy="25.904" r="5.382" stroke="#0E1821" stroke-width=".48"/><circle cx="24.944" cy="25.904" r="3.733" stroke="#0E1821" stroke-width=".48"/><circle cx="24.944" cy="25.904" r="1.334" fill="#F15152" stroke="#0E1821" stroke-width=".48"/><circle cx="15.273" cy="25.379" r="1.859" fill="#2A5275" stroke="#0E1821" stroke-width=".48"/><path stroke="#0E1821" stroke-width=".32" stroke-linecap="round" d="M15.283 25.389v3.279"/><path stroke="#0E1821" stroke-width=".48" stroke-linecap="round" d="M15.932 28.618h-1.319"/><circle cx="26.968" cy="11.735" r="1.259" fill="#F15152" stroke="#0E1821" stroke-width=".48"/><path d="M5.677 9.786v5.177c0 .619.502 1.12 1.12 1.12h8.026" stroke="#0E1821" stroke-width=".48"/><circle cx="19.771" cy="6.038" r="5.158" fill="#fff" stroke="#0E1821" stroke-width=".48"/><path d="M18.581 2.46a.239.239 0 0 1 .23-.17h1.92a.24.24 0 0 1 .236.202.238.238 0 0 1-.01.112l-.853 2.553h1.826a.24.24 0 0 1 .238.263.239.239 0 0 1-.049.122l-3.358 4.301a.24.24 0 0 1-.419-.217l.864-2.797h-1.594a.24.24 0 0 1-.236-.196.237.237 0 0 1 .006-.11L18.58 2.46Zm.41.307-1.059 3.584h1.599a.24.24 0 0 1 .23.31l-.576 1.86 2.254-2.887h-1.668a.24.24 0 0 1-.237-.202.238.238 0 0 1 .01-.112l.853-2.553h-1.406Z" fill="#F15152"/><path d="M5.017 8.827h1.32v.629a.24.24 0 0 1-.24.24h-.84a.24.24 0 0 1-.24-.24v-.63Zm-.749-2.099h2.818v1.828a.24.24 0 0 1-.24.24H4.508a.24.24 0 0 1-.24-.24V6.728Z" fill="#F15152" stroke="#0E1821" stroke-width=".48"/><path stroke="#0E1821" stroke-width=".48" stroke-linecap="round" d="M4.837 6.397v-.869m1.65.869v-.869"/><path d="M18.197 14.359h-5.548c-.6-.075-.732-.264-.9-.6-.15-.3-.075-.974.075-1.274.18-.361.6-.608.9-.675.675-.15 1.424 0 2.024.3.474.237.85.869 1.275.975.3.075 2.099.074 2.398.224.3.15.375.85-.224 1.05Z" fill="#fff" stroke="#0E1821" stroke-width=".48" stroke-linecap="round" stroke-linejoin="round"/></svg>