<svg width="32" height="32" fill="none" xmlns="http://www.w3.org/2000/svg"><rect x="2.32" y="24.405" width="27.686" height="2.561" rx="1.28" fill="#2A5275" stroke="#0E1821" stroke-width=".48"/><path d="M4.56 26.965h5.282v2.8a.88.88 0 0 1-.88.881H5.44a.88.88 0 0 1-.88-.88v-2.8Zm17.925 0h5.28v2.8a.88.88 0 0 1-.88.881h-3.52a.88.88 0 0 1-.88-.88v-2.8Z" fill="#0E1821" stroke="#0E1821" stroke-width=".48"/><path d="M2.96 19.364a3.28 3.28 0 0 1 3.281-3.28h19.844a3.28 3.28 0 0 1 3.28 3.28v3.52c0 .84-.68 1.521-1.52 1.521H4.482c-.84 0-1.52-.68-1.52-1.52v-3.521Z" fill="#4878A6" stroke="#0E1821" stroke-width=".48"/><path d="M22.233 8.322h-12.14a3.2 3.2 0 0 0-3.077 2.322l-1.575 5.52h21.444l-1.575-5.52a3.2 3.2 0 0 0-3.077-2.322Z" fill="#4878A6" stroke="#0E1821" stroke-width=".48" stroke-linecap="round" stroke-linejoin="round"/><path d="M22.863 10.162h-13.4a.8.8 0 0 0-.76.553L6.96 16.084h18.404l-1.741-5.367a.8.8 0 0 0-.761-.554Z" fill="#fff" stroke="#0E1821" stroke-width=".48" stroke-linecap="round" stroke-linejoin="round"/><path d="M6.3 13.283h-.699a3.84 3.84 0 0 1-3.84-3.841v-2.72A3.84 3.84 0 0 1 5.6 2.88h18.884" stroke="#0E1821" stroke-width=".48"/><path d="M25.205 2.16V3.6h-.72a.24.24 0 0 1-.24-.24V2.4a.24.24 0 0 1 .24-.24h.72Zm2.241-.8V4.4h-2a.24.24 0 0 1-.24-.24V1.6a.24.24 0 0 1 .24-.24h2Z" fill="#F15152" stroke="#0E1821" stroke-width=".48"/><path stroke="#0E1821" stroke-width=".48" stroke-linecap="round" d="M27.765 2h.961m-.961 1.761h.961"/><circle cx="7.121" cy="20.724" r="2.24" fill="#FBB13C" stroke="#0E1821" stroke-width=".48"/><circle cx="25.205" cy="20.724" r="2.24" fill="#FBB13C" stroke="#0E1821" stroke-width=".48"/><path d="M15.29 17.73a.174.174 0 0 1 .17-.126h1.407a.176.176 0 0 1 .167.23l-.626 1.87h1.34a.177.177 0 0 1 .158.098.174.174 0 0 1-.02.184l-2.464 3.15a.176.176 0 0 1-.307-.158l.634-2.049h-1.17a.177.177 0 0 1-.173-.144.174.174 0 0 1 .004-.08l.88-2.976Zm.3.224-.776 2.625h1.173a.176.176 0 0 1 .169.227l-.422 1.362 1.654-2.114h-1.225a.178.178 0 0 1-.142-.073.174.174 0 0 1-.025-.157l.627-1.87h-1.032Z" fill="#fff"/></svg>