<svg width="32" height="32" fill="none" xmlns="http://www.w3.org/2000/svg"><path d="M8.802 25.605a4.32 4.32 0 1 1-8.642 0 4.32 4.32 0 0 1 8.642 0Zm-6.557 0a2.236 2.236 0 1 0 4.472 0 2.236 2.236 0 0 0-4.472 0Z" fill="#0E1821"/><circle cx="4.481" cy="25.605" r="2.16" stroke="#0E1821" stroke-width=".48"/><circle cx="4.481" cy="25.605" r="4.081" stroke="#0E1821" stroke-width=".48"/><path d="M31.846 25.605a4.32 4.32 0 1 1-8.641 0 4.32 4.32 0 0 1 8.642 0Zm-6.556 0a2.236 2.236 0 1 0 4.472 0 2.236 2.236 0 0 0-4.472 0Z" fill="#0E1821"/><circle cx="27.526" cy="25.605" r="2.16" stroke="#0E1821" stroke-width=".48"/><circle cx="27.526" cy="25.605" r="4.081" stroke="#0E1821" stroke-width=".48"/><path d="M22.245 22.565H10.402l.24 3.12h9.042l2.56-3.12Z" fill="#F15152" stroke="#0E1821" stroke-width=".48" stroke-linecap="round" stroke-linejoin="round"/><path d="m4.834 18.652.01.001h.01a6.964 6.964 0 0 1 6.514 5.93c.06.41-.281.782-.745.782-.444 0-.831-.37-.935-.862a5.323 5.323 0 0 0-5.205-4.22l-2.799-.039h-.003a.8.8 0 0 1 0-1.6h3.04a.7.7 0 0 1 .113.008Z" fill="#2A5275" stroke="#0E1821" stroke-width=".48"/><path d="m23.293 3.96-.034-.2h-1.894V2.64h2.64c.1 0 .185.06.222.147l1.244 7.22-1.121.19-1.057-6.236Z" fill="#4878A6" stroke="#0E1821" stroke-width=".48"/><mask id="a" fill="#fff"><path fill-rule="evenodd" clip-rule="evenodd" d="M26.5 16.357a1.112 1.112 0 0 0-1.552.255l-5.645 7.873H4.641a1.12 1.12 0 1 0 0 2.24h15.203c.331 0 .628-.143.833-.371.05-.047.095-.1.136-.157l5.943-8.288c.358-.5.244-1.194-.256-1.552Z"/></mask><path fill-rule="evenodd" clip-rule="evenodd" d="M26.5 16.357a1.112 1.112 0 0 0-1.552.255l-5.645 7.873H4.641a1.12 1.12 0 1 0 0 2.24h15.203c.331 0 .628-.143.833-.371.05-.047.095-.1.136-.157l5.943-8.288c.358-.5.244-1.194-.256-1.552Z" fill="#4878A6"/><path d="m24.948 16.612-.39-.28.39.28Zm1.552-.255.28-.39-.28.39Zm-7.197 8.128v.48h.247l.144-.2-.39-.28Zm-14.662 0v-.48.48Zm16.036 1.869-.331-.347-.014.012-.012.014.357.32Zm.136-.157-.39-.28.39.28Zm5.943-8.288.39.28-.39-.28Zm-1.418-1.017a.632.632 0 0 1 .883-.145l.56-.78a1.593 1.593 0 0 0-2.223.366l.78.56Zm-5.644 7.873 5.644-7.873-.78-.56-5.645 7.873.78.56Zm-15.053.2h14.662v-.96H4.641v.96Zm-.64.64a.64.64 0 0 1 .64-.64v-.96a1.6 1.6 0 0 0-1.6 1.6H4Zm.64.64a.64.64 0 0 1-.64-.64h-.96a1.6 1.6 0 0 0 1.6 1.6v-.96Zm15.203 0H4.641v.96h15.203v-.96Zm.476-.212a.637.637 0 0 1-.476.212v.96c.473 0 .898-.205 1.19-.53l-.714-.642Zm.103-.116a.632.632 0 0 1-.077.09l.663.694a1.75 1.75 0 0 0 .195-.224l-.78-.56Zm5.943-8.288-5.943 8.288.78.56 5.943-8.288-.78-.56Zm-.145-.882a.632.632 0 0 1 .145.882l.78.56a1.593 1.593 0 0 0-.366-2.223l-.56.78Z" fill="#0E1821" mask="url(#a)"/><rect x="24.026" y="10.092" width="1.745" height="16.455" rx=".872" transform="rotate(-9.618 24.026 10.092)" fill="#4878A6" stroke="#0E1821" stroke-width=".48"/><rect x="21.364" y="2.32" width="1.76" height="4.641" rx=".88" transform="rotate(90 21.364 2.32)" fill="#2A5275" stroke="#0E1821" stroke-width=".48"/><path d="m26.006 2.8-1.6.88.4 2.481h1.76l-.56-3.36Z" fill="#4878A6" stroke="#0E1821" stroke-width=".48" stroke-linecap="round" stroke-linejoin="round"/><path fill-rule="evenodd" clip-rule="evenodd" d="m26.473 5.6-.337-2.02a1.04 1.04 0 1 1 .337 2.02Z" fill="#FBB13C"/><path d="m26.473 5.6-.237.04.033.198.2.003.004-.24Zm-.337-2.02-.08-.225-.19.067.033.198.237-.04Zm.574 1.981-.337-2.02-.474.08.337 2.02.474-.08Zm-.493-1.754a.798.798 0 0 1 .269-.046v-.48c-.15 0-.296.026-.43.074l.16.452Zm.269-.046a.8.8 0 0 1 .8.8h.48a1.28 1.28 0 0 0-1.28-1.28v.48Zm.8.8a.8.8 0 0 1-.8.8v.48a1.28 1.28 0 0 0 1.28-1.28h-.48Zm-.8.8h-.01l-.006.48h.016v-.48Z" fill="#0E1821"/><circle cx="16.003" cy="15.203" r="5.521" fill="#fff" stroke="#0E1821" stroke-width=".48"/><path d="M14.733 11.386a.255.255 0 0 1 .246-.184h2.048a.255.255 0 0 1 .243.336l-.911 2.725h1.949a.258.258 0 0 1 .23.143.255.255 0 0 1-.028.268l-3.585 4.591a.256.256 0 0 1-.447-.232l.923-2.985h-1.702a.258.258 0 0 1-.252-.21.254.254 0 0 1 .006-.117l1.28-4.335Zm.438.327-1.13 3.825h1.706a.258.258 0 0 1 .206.104.255.255 0 0 1 .039.226l-.613 1.986 2.405-3.081h-1.78a.255.255 0 0 1-.243-.336l.911-2.724h-1.501Z" fill="#F15152"/></svg>