<svg width="32" height="32" fill="none" xmlns="http://www.w3.org/2000/svg"><path d="M.96 18.404h9.042v5.04h-.8a2.08 2.08 0 0 1-2.08-2.08 1.04 1.04 0 0 0-1.041-1.04h-4.32a1.28 1.28 0 0 1-1.281-1.28v-.16a.48.48 0 0 1 .48-.48Zm30.086 0h-9.041v5.04h.8a2.08 2.08 0 0 0 2.08-2.08c0-.574.466-1.04 1.04-1.04h4.321a1.28 1.28 0 0 0 1.28-1.28v-.16a.48.48 0 0 0-.48-.48Z" fill="#2A5275" stroke="#0E1821" stroke-width=".48" stroke-linecap="round" stroke-linejoin="round"/><rect x="13.603" y="16.723" width="4.801" height="13.603" rx="2.4" fill="#0E1821" stroke="#0E1821" stroke-width=".48"/><path d="M10.962 25.605c-1.227-2.547-2.24-6.322-2.24-10.096 0-7.858 3.26-14.229 7.281-14.229 4.022 0 7.282 6.37 7.282 14.229 0 3.866-.96 7.532-2.24 10.096" stroke="#0E1821" stroke-width=".48"/><path d="M8.642 15.523c0-4.8 1.277-9.014 3.2-11.534v21.136a.56.56 0 0 1-1.045.275c-1.328-2.53-2.155-6.017-2.155-9.877Zm11.523 9.602V3.989c1.923 2.52 3.2 6.735 3.2 11.534 0 3.86-.826 7.347-2.155 9.877a.56.56 0 0 1-1.045-.275Z" fill="#4878A6" stroke="#0E1821" stroke-width=".48"/><path d="M14.813 6.264a.255.255 0 0 1 .246-.183h2.049a.257.257 0 0 1 .252.217c.006.04.003.08-.01.119l-.911 2.725h1.949a.257.257 0 0 1 .255.281.255.255 0 0 1-.053.13l-3.585 4.591a.256.256 0 0 1-.447-.232l.923-2.985h-1.702a.258.258 0 0 1-.252-.21.254.254 0 0 1 .006-.117l1.28-4.336Zm.438.327-1.13 3.826h1.706a.258.258 0 0 1 .206.103.255.255 0 0 1 .04.227l-.614 1.986 2.405-3.081h-1.78a.257.257 0 0 1-.253-.217.253.253 0 0 1 .01-.119l.911-2.725h-1.501Z" fill="#F15152"/></svg>