<svg width="32" height="32" fill="none" xmlns="http://www.w3.org/2000/svg"><path d="M24.69 23.216h-8.161v-2.523h4.163c1.06 0 1.92-.86 1.92-1.92V9.12h2.078v14.096Z" fill="#4878A6" stroke="#0E1821" stroke-width=".48" stroke-linecap="round" stroke-linejoin="round"/><path d="M30.84 20.68c-.644-3.773-4.304-4.786-6.15-4.809v5.49h5.546c.37 0 .667-.316.605-.682Z" fill="#4878A6" stroke="#0E1821" stroke-width=".48" stroke-linecap="round" stroke-linejoin="round"/><path d="M12.967 23.884a4.006 4.006 0 1 1-8.012 0 4.006 4.006 0 0 1 8.012 0Zm-6.079 0a2.073 2.073 0 1 0 4.146 0 2.073 2.073 0 0 0-4.146 0Z" fill="#0E1821"/><circle cx="8.961" cy="23.884" r="1.986" fill="#fff" stroke="#0E1821" stroke-width=".48"/><circle cx="8.961" cy="23.884" r="3.766" stroke="#0E1821" stroke-width=".48"/><path d="M30.773 23.884a4.006 4.006 0 1 1-8.012 0 4.006 4.006 0 0 1 8.012 0Zm-6.079 0a2.073 2.073 0 1 0 4.146 0 2.073 2.073 0 0 0-4.146 0Z" fill="#0E1821"/><circle cx="26.767" cy="23.884" r="1.986" fill="#fff" stroke="#0E1821" stroke-width=".48"/><circle cx="26.767" cy="23.884" r="3.766" stroke="#0E1821" stroke-width=".48"/><path stroke="#0E1821" stroke-width=".48" stroke-linecap="round" d="M1.04 27.65h30.086"/><circle cx="2.284" cy="16.91" r="1.244" fill="#FBB13C" stroke="#0E1821" stroke-width=".48"/><path d="M2.228 18.858a5.121 5.121 0 0 1 5.12-5.12h9.237v9.46H2.788a.56.56 0 0 1-.56-.56v-3.78Z" fill="#2A5275" stroke="#0E1821" stroke-width=".48"/><path d="M3.711 20.84a2.8 2.8 0 0 1 2.8-2.8h6.785c.751 0 1.36.61 1.36 1.36v3.8H3.711v-2.36Z" fill="#4878A6" stroke="#0E1821" stroke-width=".48"/><path d="M3.415 12.607c0-.605.49-1.095 1.095-1.095h11.722a1.095 1.095 0 1 1 0 2.19H4.51c-.605 0-1.095-.49-1.095-1.095Z" fill="#F15152" stroke="#0E1821" stroke-width=".48"/><path d="M20.181 6.672a2.43 2.43 0 0 1 2.431-2.431h3.617c.574 0 1.04.466 1.04 1.04v2.781a1.04 1.04 0 0 1-1.04 1.04h-3.617a2.43 2.43 0 0 1-2.43-2.43Z" fill="#4878A6" stroke="#0E1821" stroke-width=".48"/><rect x="17.362" y="6.022" width="6.494" height="1.746" rx=".873" fill="#2A5275" stroke="#0E1821" stroke-width=".48"/><path d="m28.883 4.983-1.596.565-.006 2.33 1.61.264-.008-3.16Z" fill="#4878A6" stroke="#0E1821" stroke-width=".48" stroke-linecap="round" stroke-linejoin="round"/><circle cx="29.059" cy="6.665" r=".964" transform="rotate(9.307 29.059 6.665)" fill="#FBB13C" stroke="#0E1821" stroke-width=".48"/></svg>