<svg width="32" height="32" fill="none" xmlns="http://www.w3.org/2000/svg"><rect x="5.841" y="4.401" width="20.324" height="23.045" rx="3.281" fill="#4878A6" stroke="#0E1821" stroke-width=".48"/><rect x="7.762" y="6.001" width="16.483" height="19.684" rx="1.68" fill="#fff" stroke="#0E1821" stroke-width=".48"/><path d="M15.13 8.127a.175.175 0 0 1 .169-.125h1.408a.177.177 0 0 1 .174.148.174.174 0 0 1-.007.082l-.627 1.87h1.34a.178.178 0 0 1 .158.098.174.174 0 0 1-.019.184l-2.464 3.15a.176.176 0 0 1-.308-.158l.634-2.049h-1.17a.177.177 0 0 1-.173-.144.175.175 0 0 1 .005-.08l.88-2.976Zm.3.225-.776 2.625h1.173a.177.177 0 0 1 .142.071.174.174 0 0 1 .026.156l-.422 1.362 1.654-2.114h-1.224a.176.176 0 0 1-.167-.23l.627-1.87H15.43Z" fill="#F15152"/><circle cx="11.842" cy="17.604" r="1.2" fill="#FBB13C" stroke="#0E1821" stroke-width=".48"/><circle cx="11.842" cy="21.765" r="1.2" fill="#FBB13C" stroke="#0E1821" stroke-width=".48"/><circle cx="16.003" cy="17.604" r="1.2" fill="#FBB13C" stroke="#0E1821" stroke-width=".48"/><circle cx="16.003" cy="21.765" r="1.2" fill="#FBB13C" stroke="#0E1821" stroke-width=".48"/><circle cx="20.164" cy="17.604" r="1.2" fill="#FBB13C" stroke="#0E1821" stroke-width=".48"/><circle cx="20.164" cy="21.765" r="1.2" fill="#FBB13C" stroke="#0E1821" stroke-width=".48"/><path d="M10.403 1.521a1.36 1.36 0 0 1 1.339-1.12h8.362a1.36 1.36 0 0 1 1.34 1.12l.514 2.88H9.887l.515-2.88Zm0 28.804a1.36 1.36 0 0 0 1.339 1.121h8.362a1.36 1.36 0 0 0 1.34-1.12l.514-2.88H9.887l.515 2.88Z" fill="#2A5275" stroke="#0E1821" stroke-width=".48"/></svg>