<svg width="32" height="32" fill="none" xmlns="http://www.w3.org/2000/svg"><path d="M3.6 15.203c0-6.85 5.554-12.402 12.403-12.402 6.85 0 12.403 5.552 12.403 12.402v5.841a1.04 1.04 0 0 1-1.04 1.04h-.4V16.05c0-6.497-4.444-11.808-10.963-11.808-6.519 0-10.962 5.31-10.962 11.808v6.035h-.4a1.04 1.04 0 0 1-1.04-1.04v-5.84Z" fill="#4878A6" stroke="#0E1821" stroke-width=".48"/><path d="M4.88 19.28a1.6 1.6 0 0 1 1.6-1.6h1.6v8.16h-1.6a1.6 1.6 0 0 1-1.6-1.6v-4.96Zm22.24 0a1.6 1.6 0 0 0-1.6-1.6h-1.6v8.16h1.6a1.6 1.6 0 0 0 1.6-1.6v-4.96Z" fill="#4878A6" stroke="#0E1821" stroke-width=".48"/><rect x="7.12" y="16.08" width="4.32" height="11.36" rx="2.16" fill="#2A5275" stroke="#0E1821" stroke-width=".48"/><rect x="-.24" y=".24" width="4.32" height="11.36" rx="2.16" transform="matrix(-1 0 0 1 24.64 15.84)" fill="#2A5275" stroke="#0E1821" stroke-width=".48"/></svg>