<svg width="56" height="56" fill="none" xmlns="http://www.w3.org/2000/svg"><g filter="url(#a)" fill="#C8CACB"><path d="M21 24a1 1 0 0 0-1 1v8a1 1 0 0 0 2 0v-8a1 1 0 0 0-1-1Zm5-10a1 1 0 0 0-1 1v18a1 1 0 0 0 2 0V15a1 1 0 0 0-1-1Zm10 14a1 1 0 0 0-1 1v4a1 1 0 0 0 2 0v-4a1 1 0 0 0-1-1Zm-5-8a1 1 0 0 0-1 1v12a1 1 0 0 0 2 0V21a1 1 0 0 0-1-1ZM8 1h40v-2H8v2Zm43 3v40h2V4h-2Zm-3 43H8v2h40v-2ZM5 44V4H3v40h2Zm3 3a3 3 0 0 1-3-3H3a5 5 0 0 0 5 5v-2Zm43-3a3 3 0 0 1-3 3v2a5 5 0 0 0 5-5h-2ZM48 1a3 3 0 0 1 3 3h2a5 5 0 0 0-5-5v2ZM8-1a5 5 0 0 0-5 5h2a3 3 0 0 1 3-3v-2Z"/></g><defs><filter id="a" x="0" y="0" width="56" height="56" filterUnits="userSpaceOnUse" color-interpolation-filters="sRGB"><feFlood flood-opacity="0" result="BackgroundImageFix"/><feColorMatrix in="SourceAlpha" values="0 0 0 0 0 0 0 0 0 0 0 0 0 0 0 0 0 0 127 0" result="hardAlpha"/><feOffset dy="4"/><feGaussianBlur stdDeviation="2"/><feComposite in2="hardAlpha" operator="out"/><feColorMatrix values="0 0 0 0 0 0 0 0 0 0 0 0 0 0 0 0 0 0 0.25 0"/><feBlend in2="BackgroundImageFix" result="effect1_dropShadow_1344_5532"/><feBlend in="SourceGraphic" in2="effect1_dropShadow_1344_5532" result="shape"/></filter></defs></svg>