<svg width="48" height="48" fill="none" xmlns="http://www.w3.org/2000/svg"><path d="M32.16 17a6.29 6.29 0 0 0-8.16-.64 6.27 6.27 0 0 0-8.16 9.48l6.21 6.22a2.78 2.78 0 0 0 3.9 0l6.21-6.22a6.27 6.27 0 0 0 0-8.84Zm-1.41 7.46-6.21 6.21a.76.76 0 0 1-1.08 0l-6.21-6.24a4.29 4.29 0 0 1 0-6 4.27 4.27 0 0 1 6 0 .999.999 0 0 0 1.42 0 4.27 4.27 0 0 1 6 0 4.29 4.29 0 0 1 .08 6v.03ZM4 1h40v-2H4v2Zm43 3v40h2V4h-2Zm-3 43H4v2h40v-2ZM1 44V4h-2v40h2Zm3 3a3 3 0 0 1-3-3h-2a5 5 0 0 0 5 5v-2Zm43-3a3 3 0 0 1-3 3v2a5 5 0 0 0 5-5h-2ZM44 1a3 3 0 0 1 3 3h2a5 5 0 0 0-5-5v2ZM4-1a5 5 0 0 0-5 5h2a3 3 0 0 1 3-3v-2Z" fill="#C8CACB"/></svg>