<svg width="48" height="48" fill="none" xmlns="http://www.w3.org/2000/svg"><g filter="url(#a)"><path d="M32.16 17a6.29 6.29 0 0 0-8.16-.64 6.27 6.27 0 0 0-8.16 9.48l6.21 6.22a2.78 2.78 0 0 0 3.9 0l6.21-6.22a6.27 6.27 0 0 0 0-8.84Zm-1.41 7.46-6.21 6.21a.76.76 0 0 1-1.08 0l-6.21-6.24a4.29 4.29 0 0 1 0-6 4.27 4.27 0 0 1 6 0 .999.999 0 0 0 1.42 0 4.27 4.27 0 0 1 6 0 4.29 4.29 0 0 1 .08 6v.03Z" fill="#838688"/></g><defs><filter id="a" x="-4" y="0" width="56" height="56" filterUnits="userSpaceOnUse" color-interpolation-filters="sRGB"><feFlood flood-opacity="0" result="BackgroundImageFix"/><feColorMatrix in="SourceAlpha" values="0 0 0 0 0 0 0 0 0 0 0 0 0 0 0 0 0 0 127 0" result="hardAlpha"/><feOffset dy="4"/><feGaussianBlur stdDeviation="2"/><feComposite in2="hardAlpha" operator="out"/><feColorMatrix values="0 0 0 0 0 0 0 0 0 0 0 0 0 0 0 0 0 0 0.25 0"/><feBlend in2="BackgroundImageFix" result="effect1_dropShadow_72_856"/><feBlend in="SourceGraphic" in2="effect1_dropShadow_72_856" result="shape"/></filter></defs></svg>