<svg width="56" height="56" viewBox="0 0 56 56" fill="none" xmlns="http://www.w3.org/2000/svg">
<g filter="url(#filter0_d_1344_5179)">
<path d="M4 4C4 1.79086 5.79086 0 8 0H48C50.2091 0 52 1.79086 52 4V44C52 46.2091 50.2091 48 48 48H8C5.79086 48 4 46.2091 4 44V4Z" fill="white"/>
<path d="M21 24C20.7348 24 20.4804 24.1054 20.2929 24.2929C20.1054 24.4804 20 24.7348 20 25V33C20 33.2652 20.1054 33.5196 20.2929 33.7071C20.4804 33.8946 20.7348 34 21 34C21.2652 34 21.5196 33.8946 21.7071 33.7071C21.8946 33.5196 22 33.2652 22 33V25C22 24.7348 21.8946 24.4804 21.7071 24.2929C21.5196 24.1054 21.2652 24 21 24ZM26 14C25.7348 14 25.4804 14.1054 25.2929 14.2929C25.1054 14.4804 25 14.7348 25 15V33C25 33.2652 25.1054 33.5196 25.2929 33.7071C25.4804 33.8946 25.7348 34 26 34C26.2652 34 26.5196 33.8946 26.7071 33.7071C26.8946 33.5196 27 33.2652 27 33V15C27 14.7348 26.8946 14.4804 26.7071 14.2929C26.5196 14.1054 26.2652 14 26 14ZM36 28C35.7348 28 35.4804 28.1054 35.2929 28.2929C35.1054 28.4804 35 28.7348 35 29V33C35 33.2652 35.1054 33.5196 35.2929 33.7071C35.4804 33.8946 35.7348 34 36 34C36.2652 34 36.5196 33.8946 36.7071 33.7071C36.8946 33.5196 37 33.2652 37 33V29C37 28.7348 36.8946 28.4804 36.7071 28.2929C36.5196 28.1054 36.2652 28 36 28ZM31 20C30.7348 20 30.4804 20.1054 30.2929 20.2929C30.1054 20.4804 30 20.7348 30 21V33C30 33.2652 30.1054 33.5196 30.2929 33.7071C30.4804 33.8946 30.7348 34 31 34C31.2652 34 31.5196 33.8946 31.7071 33.7071C31.8946 33.5196 32 33.2652 32 33V21C32 20.7348 31.8946 20.4804 31.7071 20.2929C31.5196 20.1054 31.2652 20 31 20Z" fill="#C8CACB"/>
<path d="M8 1H48V-1H8V1ZM51 4V44H53V4H51ZM48 47H8V49H48V47ZM5 44V4H3V44H5ZM8 47C6.34315 47 5 45.6569 5 44H3C3 46.7614 5.23858 49 8 49V47ZM51 44C51 45.6569 49.6569 47 48 47V49C50.7614 49 53 46.7614 53 44H51ZM48 1C49.6569 1 51 2.34315 51 4H53C53 1.23858 50.7614 -1 48 -1V1ZM8 -1C5.23858 -1 3 1.23858 3 4H5C5 2.34315 6.34315 1 8 1V-1Z" fill="#C8CACB"/>
</g>
<defs>
<filter id="filter0_d_1344_5179" x="0" y="0" width="56" height="56" filterUnits="userSpaceOnUse" color-interpolation-filters="sRGB">
<feFlood flood-opacity="0" result="BackgroundImageFix"/>
<feColorMatrix in="SourceAlpha" type="matrix" values="0 0 0 0 0 0 0 0 0 0 0 0 0 0 0 0 0 0 127 0" result="hardAlpha"/>
<feOffset dy="4"/>
<feGaussianBlur stdDeviation="2"/>
<feComposite in2="hardAlpha" operator="out"/>
<feColorMatrix type="matrix" values="0 0 0 0 0 0 0 0 0 0 0 0 0 0 0 0 0 0 0.25 0"/>
<feBlend mode="normal" in2="BackgroundImageFix" result="effect1_dropShadow_1344_5179"/>
<feBlend mode="normal" in="SourceGraphic" in2="effect1_dropShadow_1344_5179" result="shape"/>
</filter>
</defs>
</svg>
