<svg width="48" height="48" viewBox="0 0 48 48" fill="none" xmlns="http://www.w3.org/2000/svg">
<path d="M32.16 17C31.1 15.9373 29.6948 15.2886 28.1984 15.1712C26.7019 15.0538 25.2128 15.4755 24 16.36C22.7277 15.4137 21.144 14.9846 19.568 15.1591C17.9919 15.3336 16.5405 16.0988 15.506 17.3006C14.4715 18.5024 13.9309 20.0516 13.9928 21.6361C14.0548 23.2206 14.7148 24.7227 15.84 25.84L22.05 32.06C22.57 32.5718 23.2704 32.8587 24 32.8587C24.7296 32.8587 25.43 32.5718 25.95 32.06L32.16 25.84C33.3276 24.6653 33.983 23.0763 33.983 21.42C33.983 19.7638 33.3276 18.1748 32.16 17Z" fill="#F15152"/>
<path d="M4 1H44V-1H4V1ZM47 4V44H49V4H47ZM44 47H4V49H44V47ZM1 44V4H-1V44H1ZM4 47C2.34315 47 1 45.6569 1 44H-1C-1 46.7614 1.23857 49 4 49V47ZM47 44C47 45.6569 45.6569 47 44 47V49C46.7614 49 49 46.7614 49 44H47ZM44 1C45.6569 1 47 2.34315 47 4H49C49 1.23858 46.7614 -1 44 -1V1ZM4 -1C1.23858 -1 -1 1.23857 -1 4H1C1 2.34315 2.34315 1 4 1V-1Z" fill="#C8CACB"/>
</svg>
